<?xml version="1.0" encoding="UTF-8"?>
<svg width="422px" height="438px" viewBox="0 0 422 438" version="1.1" xmlns="http://www.w3.org/2000/svg" xmlns:xlink="http://www.w3.org/1999/xlink">
    <g id="Page-1" stroke="none" stroke-width="1" fill="none" fill-rule="evenodd">
        <g id="cart" fill="#4F4F4F" fill-rule="nonzero">
            <circle id="Oval" cx="144.033" cy="390.792" r="47.02"></circle>
            <circle id="Oval" cx="342.563" cy="390.792" r="47.02"></circle>
            <path d="M106.939,82.024 L90.743,32.914 C84.296,13.499 66.267,0.292 45.812,0 L10.808,0 C5.037,0 0.359,4.678 0.359,10.449 C0.359,16.22 5.037,20.898 10.808,20.898 L45.812,20.898 C57.173,21.149 67.177,28.444 70.89,39.184 L136.719,239.282 L132.017,251.298 C126.288,266.278 127.832,283.067 136.197,296.751 C144.892,310.025 159.52,318.217 175.381,318.694 L379.136,318.694 C384.907,318.694 389.585,314.016 389.585,308.245 C389.585,302.474 384.907,297.796 379.136,297.796 L175.38,297.796 C166.583,297.492 158.531,292.779 153.96,285.257 C149.028,277.833 148.052,268.461 151.348,260.179 L157.617,244.505 C158.559,242.001 158.741,239.275 158.139,236.668 L155.004,228.831 L367.641,206.888 C383.123,205.495 395.968,194.334 399.51,179.198 L421.453,86.725 L106.939,82.024 Z" id="Path"></path>
        </g>
    </g>
</svg>